<svg width="260" height="260" viewBox="0 0 260 260" fill="none" xmlns="http://www.w3.org/2000/svg">
<rect width="260" height="260" fill="white"/>
<mask id="path-1-inside-1_106_2" fill="white">
<path d="M35 35H85V85H35V35Z"/>
</mask>
<path d="M35 35H85V85H35V35Z" fill="white"/>
<path d="M35 35V25H25V35H35ZM35 45H85V25H35V45ZM45 85V35H25V85H45Z" fill="black" mask="url(#path-1-inside-1_106_2)"/>
<mask id="path-3-inside-2_106_2" fill="white">
<path d="M35 175H85V225H35V175Z"/>
</mask>
<path d="M35 175H85V225H35V175Z" fill="white"/>
<path d="M35 225H25V235H35V225ZM85 215H35V235H85V215ZM45 225V175H25V225H45Z" fill="black" mask="url(#path-3-inside-2_106_2)"/>
<mask id="path-5-inside-3_106_2" fill="white">
<path d="M175 175H225V225H175V175Z"/>
</mask>
<path d="M175 175H225V225H175V175Z" fill="white"/>
<path d="M225 225V235H235V225H225ZM215 175V225H235V175H215ZM225 215H175V235H225V215Z" fill="black" mask="url(#path-5-inside-3_106_2)"/>
<mask id="path-7-inside-4_106_2" fill="white">
<path d="M175 35H225V85H175V35Z"/>
</mask>
<path d="M175 35H225V85H175V35Z" fill="white"/>
<path d="M225 35H235V25H225V35ZM175 45H225V25H175V45ZM215 35V85H235V35H215Z" fill="black" mask="url(#path-7-inside-4_106_2)"/>
</svg>
